<svg width="13" height="13" viewBox="0 0 13 13" fill="none" xmlns="http://www.w3.org/2000/svg">
  <path d="M7.72559 1.66992H4.72559C4.44944 1.66992 4.22559 1.89378 4.22559 2.16992V3.16992C4.22559 3.44606 4.44944 3.66992 4.72559 3.66992H7.72559C8.00173 3.66992 8.22559 3.44606 8.22559 3.16992V2.16992C8.22559 1.89378 8.00173 1.66992 7.72559 1.66992Z" stroke="#FAFAFA" stroke-linecap="round" stroke-linejoin="round" />
  <path d="M8.22559 2.66992H9.22559C9.4908 2.66992 9.74516 2.77528 9.93269 2.96282C10.1202 3.15035 10.2256 3.40471 10.2256 3.66992V10.6699C10.2256 10.9351 10.1202 11.1895 9.93269 11.377C9.74516 11.5646 9.4908 11.6699 9.22559 11.6699H3.22559C2.96037 11.6699 2.70602 11.5646 2.51848 11.377C2.33094 11.1895 2.22559 10.9351 2.22559 10.6699V3.66992C2.22559 3.40471 2.33094 3.15035 2.51848 2.96282C2.70602 2.77528 2.96037 2.66992 3.22559 2.66992H4.22559" stroke="#FAFAFA" stroke-linecap="round" stroke-linejoin="round" />
</svg>